<svg width="55" height="57" viewBox="0 0 55 57" fill="none" xmlns="http://www.w3.org/2000/svg">
<path d="M23.75 37.5C24.5784 37.5 25.25 36.8284 25.25 36C25.25 35.1716 24.5784 34.5 23.75 34.5C22.9216 34.5 22.25 35.1716 22.25 36C22.25 36.8284 22.9216 37.5 23.75 37.5Z" fill="white"/>
<path d="M34.25 37.5C35.0784 37.5 35.75 36.8284 35.75 36C35.75 35.1716 35.0784 34.5 34.25 34.5C33.4216 34.5 32.75 35.1716 32.75 36C32.75 36.8284 33.4216 37.5 34.25 37.5Z" fill="white"/>
<path d="M36.9125 22.1616C36.8071 22.0327 36.6744 21.9289 36.5239 21.8577C36.3734 21.7865 36.209 21.7497 36.0425 21.75H21.7761L21.4888 20.1197C21.4581 19.946 21.3673 19.7887 21.2322 19.6754C21.0971 19.5621 20.9263 19.5 20.75 19.5H17.75C17.5511 19.5 17.3603 19.579 17.2197 19.7197C17.079 19.8603 17 20.0511 17 20.25C17 20.4489 17.079 20.6397 17.2197 20.7803C17.3603 20.921 17.5511 21 17.75 21H20.1209L22.2613 33.1303C22.2919 33.304 22.3827 33.4613 22.5178 33.5746C22.6529 33.6879 22.8237 33.75 23 33.75H35C35.1989 33.75 35.3897 33.671 35.5303 33.5303C35.671 33.3897 35.75 33.1989 35.75 33C35.75 32.8011 35.671 32.6103 35.5303 32.4697C35.3897 32.329 35.1989 32.25 35 32.25H23.6291L23.3647 30.75H34.6925C34.9526 30.7497 35.2046 30.6595 35.4058 30.4947C35.6071 30.3299 35.7452 30.1007 35.7969 29.8458L37.1469 23.0958C37.1794 22.9324 37.1753 22.7639 37.1347 22.6023C37.0942 22.4408 37.0183 22.2902 36.9125 22.1616V22.1616Z" fill="white"/>
</svg>
