<svg width="27" height="27" viewBox="0 0 27 27" fill="none" xmlns="http://www.w3.org/2000/svg">
<path d="M13.1732 4.3977L13.6083 4.14937L14.0432 4.39805C15.1272 2.50221 16.4239 1.38724 17.7254 0.871217C19.0234 0.35662 20.3682 0.420089 21.5964 0.955221C24.0625 2.02978 26.1023 5.04347 26.1023 9.14911C26.1023 10.6238 25.4175 12.3678 24.3026 14.2161C23.1949 16.0524 21.6987 17.9333 20.155 19.6683C18.613 21.4012 17.0338 22.9772 15.7666 24.2045C15.3114 24.6454 14.898 25.0397 14.5401 25.3811C14.3994 25.5154 14.2672 25.6415 14.1444 25.759C13.9402 25.9545 13.7576 26.1303 13.6053 26.2809C13.4463 26.1279 13.255 25.9498 13.0412 25.7527C12.8644 25.5895 12.6698 25.4111 12.4588 25.2178C12.1276 24.9143 11.756 24.5738 11.3494 24.1969C10.0246 22.9691 8.36863 21.3927 6.74969 19.6593C5.12885 17.9239 3.55624 16.0427 2.39164 14.2065C1.21874 12.3572 0.500982 10.6168 0.500982 9.14911C0.500982 5.02889 2.68054 2.00961 5.3063 0.935194C6.61657 0.399058 8.04457 0.341141 9.40361 0.863927C10.7635 1.38702 12.0944 2.50753 13.1732 4.3977Z" stroke="#EC7B15"/>
</svg>
