<svg width="22" height="20" viewBox="0 0 22 20" fill="none" xmlns="http://www.w3.org/2000/svg">
<path d="M21.183 11.188H18.1798V8.01105H21.183C21.6342 8.01105 22 7.60882 22 7.11202C22 6.61518 21.6342 6.21271 21.183 6.21271H18.1798V1.80454C18.1798 1.16106 18.0643 0.688761 17.8366 0.401057C17.6201 0.127359 17.3356 0 16.9415 0C16.5655 0 16.2917 0.12648 16.0794 0.398471C15.8543 0.686467 15.7401 1.15965 15.7401 1.80483V6.21324H10.091L7.68911 2.21253C7.48354 1.85548 7.29026 1.52103 7.10256 1.2C6.93357 0.910882 6.76874 0.675488 6.61305 0.499724C6.47523 0.344112 6.31816 0.223683 6.13445 0.131116C5.96111 0.0440143 5.74074 0.000292804 5.48003 0.000292804C5.1475 0.000292804 4.84565 0.100569 4.55661 0.306588C4.27058 0.510361 4.07286 0.762297 3.9521 1.07684C3.84611 1.37576 3.79003 1.83382 3.79003 2.42508V6.21295H0.816718C0.365557 6.213 0 6.61547 0 7.11227C0 7.60906 0.365557 8.01129 0.816762 8.01129H3.79007V11.1886H0.816762C0.365557 11.1886 0 11.5909 0 12.0879C0 12.5845 0.365557 12.9866 0.816762 12.9866H3.79007V18.0196C3.79007 18.6441 3.90928 19.1116 4.14539 19.4087C4.36993 19.6919 4.65462 19.8234 5.04124 19.8234C5.41424 19.8234 5.69672 19.6913 5.93097 19.4075C6.17085 19.1168 6.29218 18.6496 6.29218 18.0197V12.9866H11.4039L14.1702 17.6556C14.3625 17.9642 14.5611 18.2758 14.7592 18.5812C14.9379 18.8555 15.1329 19.0972 15.3386 19.2991C15.5238 19.4817 15.7224 19.6155 15.9289 19.6971C16.1414 19.7813 16.3898 19.824 16.6655 19.824C17.4136 19.824 18.1797 19.5719 18.1797 17.7024V12.9866H21.1829C21.6341 12.9866 21.9999 12.5839 21.9999 12.0873C22 11.5906 21.6342 11.188 21.183 11.188ZM15.74 8.011V11.1879H13.0783L11.1712 8.011H15.74ZM6.29223 4.36059L7.38987 6.21271H6.29223V4.36059ZM6.29223 11.188V8.01105H8.45569L10.3383 11.188H6.29223ZM15.74 15.6223L14.1582 12.9866H15.74V15.6223Z" fill="#EC7B15"/>
</svg>
