<svg width="27" height="27" viewBox="0 0 27 27" fill="none" xmlns="http://www.w3.org/2000/svg">
<path d="M13.1731 4.39769L13.6082 4.14936L14.0431 4.39804C15.1272 2.5022 16.4239 1.38723 17.7254 0.871215C19.0233 0.356619 20.3682 0.420088 21.5963 0.955219C24.0624 2.02978 26.1022 5.04346 26.1022 9.14909C26.1022 10.6237 25.4175 12.3678 24.3026 14.216C23.1949 16.0523 21.6987 17.9333 20.1549 19.6682C18.6129 21.4012 17.0338 22.9772 15.7666 24.2044C15.3113 24.6453 14.898 25.0397 14.5401 25.3811C14.3993 25.5153 14.2672 25.6414 14.1444 25.7589C13.9402 25.9544 13.7576 26.1302 13.6052 26.2809C13.4462 26.1279 13.2549 25.9498 13.0412 25.7526C12.8643 25.5894 12.6697 25.4111 12.4587 25.2177C12.1275 24.9142 11.756 24.5737 11.3494 24.1969C10.0245 22.969 8.36862 21.3927 6.74968 19.6593C5.12884 17.9238 3.55623 16.0427 2.39164 14.2065C1.21873 12.3572 0.500981 10.6167 0.500981 9.14909C0.500981 5.02888 2.68053 2.0096 5.30629 0.935192C6.61656 0.399057 8.04455 0.34114 9.40359 0.863925C10.7634 1.38702 12.0943 2.50752 13.1731 4.39769Z" stroke="#EC7B15"/>
</svg>
