<svg width="48" height="48" viewBox="0 0 48 48" fill="none" xmlns="http://www.w3.org/2000/svg">
<rect width="48" height="48" rx="23.7309" fill="#FFA451"/>
<path d="M29.4791 35.9988H29.5127C30.1463 35.9988 30.7451 35.7492 31.1987 35.2956L34.4531 32.0412C34.5646 31.9298 34.6531 31.7976 34.7135 31.652C34.7739 31.5064 34.805 31.3504 34.805 31.1928C34.805 31.0352 34.7739 30.8791 34.7135 30.7336C34.6531 30.588 34.5646 30.4557 34.4531 30.3444L29.6531 25.5444C29.5418 25.4329 29.4095 25.3444 29.2639 25.284C29.1184 25.2236 28.9623 25.1926 28.8047 25.1926C28.6471 25.1926 28.4911 25.2236 28.3455 25.284C28.1999 25.3444 28.0677 25.4329 27.9563 25.5444L26.0435 27.4572C25.1567 27.1932 23.5019 26.5932 22.4531 25.5444C21.4043 24.4956 20.8043 22.8408 20.5403 21.954L22.4531 20.0412C22.5647 19.9299 22.6531 19.7976 22.7135 19.652C22.7739 19.5065 22.805 19.3504 22.805 19.1928C22.805 19.0352 22.7739 18.8791 22.7135 18.7336C22.6531 18.588 22.5647 18.4557 22.4531 18.3444L17.6531 13.5444C17.4237 13.3279 17.1202 13.2072 16.8047 13.2072C16.4893 13.2072 16.1857 13.3279 15.9563 13.5444L12.7031 16.7988C12.2471 17.2548 11.9903 17.8812 11.9999 18.5208C12.0275 20.2296 12.4799 26.1648 17.1575 30.8424C21.8351 35.52 27.7703 35.9712 29.4791 35.9988V35.9988ZM16.8059 16.0896L19.9091 19.1928L18.3575 20.7444C18.2163 20.8852 18.1126 21.0591 18.0558 21.2503C17.999 21.4414 17.9909 21.6437 18.0323 21.8388C18.0611 21.9768 18.7655 25.2492 20.7575 27.2412C22.7495 29.2332 26.0219 29.9376 26.1599 29.9664C26.355 30.008 26.5574 30 26.7485 29.9432C26.9397 29.8864 27.1136 29.7826 27.2543 29.6412L28.8059 28.0896L31.9091 31.1928L29.5019 33.5988C28.0043 33.5736 22.8803 33.1716 18.8543 29.1444C14.8151 25.1052 14.4239 19.9632 14.3999 18.4956L16.8059 16.0896ZM33.5987 22.7988H35.9987C35.9987 16.6428 31.3511 12 25.1867 12V14.4C30.0611 14.4 33.5987 17.9316 33.5987 22.7988V22.7988Z" fill="white"/>
<path d="M25.1988 19.2C27.7224 19.2 28.7988 20.2764 28.7988 22.8H31.1988C31.1988 18.93 29.0688 16.8 25.1988 16.8V19.2V19.2Z" fill="white"/>
</svg>
