<svg width="59" height="39" viewBox="0 0 59 39" fill="none" xmlns="http://www.w3.org/2000/svg">
<path d="M18.4375 28.0312H51.625M18.4375 10.9688H51.625H18.4375ZM18.4375 19.5H51.625H18.4375Z" stroke="#EC7B15" stroke-width="2" stroke-linecap="round" stroke-linejoin="round"/>
<path d="M9.21875 12.1875C10.237 12.1875 11.0625 11.6418 11.0625 10.9688C11.0625 10.2957 10.237 9.75 9.21875 9.75C8.20047 9.75 7.375 10.2957 7.375 10.9688C7.375 11.6418 8.20047 12.1875 9.21875 12.1875Z" stroke="#EC7B15" stroke-width="2" stroke-linecap="round" stroke-linejoin="round"/>
<path d="M9.21875 20.7188C10.237 20.7188 11.0625 20.1731 11.0625 19.5C11.0625 18.8269 10.237 18.2812 9.21875 18.2812C8.20047 18.2812 7.375 18.8269 7.375 19.5C7.375 20.1731 8.20047 20.7188 9.21875 20.7188Z" stroke="#EC7B15" stroke-width="2" stroke-linecap="round" stroke-linejoin="round"/>
<path d="M9.21875 29.25C10.237 29.25 11.0625 28.7043 11.0625 28.0312C11.0625 27.3582 10.237 26.8125 9.21875 26.8125C8.20047 26.8125 7.375 27.3582 7.375 28.0312C7.375 28.7043 8.20047 29.25 9.21875 29.25Z" stroke="#EC7B15" stroke-width="2" stroke-linecap="round" stroke-linejoin="round"/>
</svg>
