<svg width="37" height="28" viewBox="0 0 37 28" fill="none" xmlns="http://www.w3.org/2000/svg">
<path d="M35.5098 15.8022H30.4755V11.315H35.5098C36.2662 11.315 36.8794 10.7469 36.8794 10.0452C36.8794 9.34347 36.2662 8.775 35.5098 8.775H30.4755V2.54878C30.4755 1.63992 30.2818 0.972826 29.9001 0.566465C29.5373 0.179885 29.0602 0 28.3997 0C27.7693 0 27.3103 0.178644 26.9545 0.562812C26.5772 0.969586 26.3857 1.63792 26.3857 2.5492V8.77576H16.9159L12.8895 3.12503C12.5449 2.62074 12.2209 2.14835 11.9063 1.69492C11.623 1.28656 11.3467 0.954079 11.0857 0.705824C10.8546 0.486034 10.5914 0.315936 10.2834 0.185192C9.99282 0.0621671 9.62341 0.000413564 9.18636 0.000413564C8.62893 0.000413564 8.12293 0.142047 7.6384 0.433033C7.15892 0.720849 6.82748 1.07669 6.62505 1.52096C6.44736 1.94317 6.35335 2.59013 6.35335 3.42526V8.77535H1.36909C0.612796 8.77542 0 9.34388 0 10.0456C0 10.7473 0.612796 11.3154 1.36917 11.3154H6.35343V15.8031H1.36917C0.612796 15.8031 0 16.3714 0 17.0733C0 17.7748 0.612796 18.3427 1.36917 18.3427H6.35343V25.4514C6.35343 26.3334 6.55326 26.9938 6.94906 27.4133C7.32546 27.8134 7.80271 27.9992 8.4508 27.9992C9.07608 27.9992 9.54961 27.8126 9.94229 27.4118C10.3444 27.0011 10.5478 26.3412 10.5478 25.4515V18.3427H19.1168L23.754 24.9373C24.0764 25.3732 24.4094 25.8132 24.7414 26.2446C25.041 26.6321 25.3678 26.9734 25.7126 27.2585C26.0232 27.5165 26.3561 27.7054 26.7022 27.8207C27.0584 27.9397 27.4748 28 27.9369 28C29.191 28 30.4753 27.644 30.4753 25.0034V18.3427H35.5096C36.2661 18.3427 36.8792 17.7739 36.8792 17.0724C36.8794 16.371 36.2662 15.8022 35.5098 15.8022ZM26.3856 11.315V15.8022H21.9237L18.7266 11.315H26.3856ZM10.5479 6.15902L12.3879 8.775H10.5479V6.15902ZM10.5479 15.8022V11.315H14.1746L17.3304 15.8022H10.5479ZM26.3856 22.0653L23.7338 18.3427H26.3856V22.0653Z" fill="#EC7B15"/>
</svg>
