<svg width="37" height="28" viewBox="0 0 37 28" fill="none" xmlns="http://www.w3.org/2000/svg">
<path d="M35.5097 15.8022H30.4754V11.315H35.5097C36.2661 11.315 36.8793 10.7469 36.8793 10.0452C36.8793 9.34345 36.2661 8.77499 35.5097 8.77499H30.4754V2.54878C30.4754 1.63991 30.2818 0.972824 29.9 0.566464C29.5372 0.179885 29.0602 0 28.3996 0C27.7693 0 27.3102 0.178644 26.9544 0.562811C26.5771 0.969585 26.3856 1.63791 26.3856 2.54919V8.77575H16.9159L12.8895 3.12503C12.5449 2.62073 12.2209 2.14835 11.9062 1.69491C11.623 1.28655 11.3467 0.954077 11.0857 0.705823C10.8546 0.486033 10.5913 0.315935 10.2834 0.185191C9.99281 0.062167 9.62339 0.000413563 9.18635 0.000413563C8.62892 0.000413563 8.12291 0.142047 7.63839 0.433032C7.15891 0.720848 6.82747 1.07669 6.62504 1.52095C6.44735 1.94317 6.35334 2.59013 6.35334 3.42525V8.77533H1.36909C0.612795 8.7754 0 9.34386 0 10.0456C0 10.7472 0.612795 11.3154 1.36916 11.3154H6.35342V15.803H1.36916C0.612795 15.803 0 16.3714 0 17.0732C0 17.7747 0.612795 18.3426 1.36916 18.3426H6.35342V25.4514C6.35342 26.3334 6.55325 26.9937 6.94905 27.4133C7.32545 27.8134 7.80269 27.9991 8.45079 27.9991C9.07607 27.9991 9.5496 27.8126 9.94227 27.4117C10.3444 27.0011 10.5478 26.3412 10.5478 25.4515V18.3426H19.1168L23.7539 24.9372C24.0764 25.3732 24.4093 25.8132 24.7414 26.2446C25.0409 26.632 25.3677 26.9734 25.7126 27.2585C26.0231 27.5164 26.3561 27.7054 26.7021 27.8207C27.0584 27.9397 27.4748 28 27.9369 28C29.1909 28 30.4753 27.6439 30.4753 25.0033V18.3426H35.5096C36.266 18.3426 36.8792 17.7739 36.8792 17.0724C36.8793 16.3709 36.2661 15.8022 35.5097 15.8022ZM26.3856 11.3149V15.8021H21.9237L18.7266 11.3149H26.3856ZM10.5479 6.15901L12.3879 8.77499H10.5479V6.15901ZM10.5479 15.8022V11.315H14.1745L17.3304 15.8022H10.5479ZM26.3856 22.0653L23.7338 18.3426H26.3856V22.0653Z" fill="#EC7B15"/>
</svg>
